<svg viewBox="0 0 400 120" xmlns="http://www.w3.org/2000/svg">
  <!-- Background circle for the icon -->
  <circle cx="60" cy="60" r="45" fill="#2563eb" opacity="0.1"/>
  
  <!-- Main icon - stylized molecule/network representing life sciences -->
  <g transform="translate(60, 60)">
    <!-- Central hub -->
    <circle cx="0" cy="0" r="4" fill="#2563eb"/>
    
    <!-- Connection lines -->
    <line x1="0" y1="0" x2="15" y2="-15" stroke="#6b7280" stroke-width="2"/>
    <line x1="0" y1="0" x2="-15" y2="-15" stroke="#6b7280" stroke-width="2"/>
    <line x1="0" y1="0" x2="15" y2="15" stroke="#6b7280" stroke-width="2"/>
    <line x1="0" y1="0" x2="-15" y2="15" stroke="#6b7280" stroke-width="2"/>
    
    <!-- Outer nodes -->
    <circle cx="15" cy="-15" r="3" fill="#374151"/>
    <circle cx="-15" cy="-15" r="3" fill="#374151"/>
    <circle cx="15" cy="15" r="3" fill="#374151"/>
    <circle cx="-15" cy="15" r="3" fill="#374151"/>
    
    <!-- Additional small connections for complexity -->
    <line x1="15" y1="-15" x2="25" y2="-10" stroke="#6b7280" stroke-width="1.5"/>
    <line x1="-15" y1="15" x2="-25" y2="20" stroke="#6b7280" stroke-width="1.5"/>
    
    <!-- Small end nodes -->
    <circle cx="25" cy="-10" r="2" fill="#9ca3af"/>
    <circle cx="-25" cy="20" r="2" fill="#9ca3af"/>
  </g>
  
  <!-- Company name -->
  <text x="130" y="45" font-family="Atkinson, Arial, sans-serif" font-size="24" font-weight="700" fill="#1f2937">
    GMT
  </text>
  
  <!-- International text -->
  <text x="130" y="65" font-family="Atkinson, Arial, sans-serif" font-size="14" font-weight="400" fill="#6b7280" letter-spacing="1px">
    INTERNATIONAL
  </text>
  
  <!-- Consulting text -->
  <text x="130" y="85" font-family="Atkinson, Arial, sans-serif" font-size="16" font-weight="500" fill="#2563eb">
    Consulting
  </text>
  
  <!-- Subtle accent line -->
  <line x1="130" y1="92" x2="280" y2="92" stroke="#e5e7eb" stroke-width="1"/>
  
  <!-- Tagline -->
  <text x="130" y="105" font-family="Atkinson, Arial, sans-serif" font-size="10" font-weight="400" fill="#9ca3af" letter-spacing="0.5px">
    EMPOWERING TALENT • RESTORING VITALITY
  </text>
</svg>